<svg width="40" height="44" viewBox="0 0 33 33" fill="none" xmlns="http://www.w3.org/2000/svg" stroke-width="3px">
    <path
        d="M19.8252 25.8501V18.9751C19.8252 18.6104 19.6803 18.2607 19.4225 18.0028C19.1646 17.745 18.8149 17.6001 18.4502 17.6001H14.3252C13.9605 17.6001 13.6108 17.745 13.3529 18.0028C13.0951 18.2607 12.9502 18.6104 12.9502 18.9751V25.8501"
        stroke="#FFFCFC" stroke-linecap="round" stroke-linejoin="round"  />
    <path
        d="M6.76256 12.1001V20.3501C6.76256 22.9433 6.76256 24.2386 7.56831 25.0443C8.37406 25.8501 9.66931 25.8501 12.2626 25.8501H20.5126C23.1058 25.8501 24.4011 25.8501 25.2068 25.0443C26.0126 24.2386 26.0126 22.9433 26.0126 20.3501V12.1001M6.24144 3.18322C6.49169 2.18222 6.61681 1.6831 6.98944 1.3916C7.36344 1.1001 7.87906 1.1001 8.91031 1.1001H23.8648C24.8961 1.1001 25.4117 1.1001 25.7857 1.3916C26.1569 1.6831 26.2834 2.18222 26.5337 3.18322L28.1878 9.80247C28.3212 10.336 28.3886 10.6013 28.3734 10.8186C28.3546 11.0926 28.2542 11.3546 28.0851 11.571C27.916 11.7874 27.686 11.9482 27.4247 12.0327C27.2184 12.1001 26.9379 12.1001 26.3756 12.1001C25.6427 12.1001 25.2756 12.1001 24.9689 12.0286C24.5438 11.9296 24.1484 11.7308 23.8153 11.4486C23.4823 11.1665 23.2211 10.8091 23.0536 10.4061C22.9312 10.1146 22.8721 9.75985 22.7552 9.05447C22.7222 8.85647 22.7057 8.75747 22.6864 8.73135C22.6737 8.71374 22.6569 8.69941 22.6376 8.68952C22.6182 8.67964 22.5968 8.67448 22.5751 8.67448C22.5533 8.67448 22.5319 8.67964 22.5125 8.68952C22.4932 8.69941 22.4764 8.71374 22.4637 8.73135C22.4444 8.75747 22.4279 8.8551 22.3949 9.05447L22.2836 9.72685L22.2588 9.86435C22.1413 10.4825 21.8154 11.0416 21.3355 11.4485C20.8555 11.8554 20.2506 12.0854 19.6216 12.1001H19.3411C18.6877 12.0853 18.061 11.8384 17.5732 11.4035C17.0854 10.9686 16.7684 10.3742 16.6791 9.72685L16.5677 9.0531C16.5347 8.85647 16.5182 8.75747 16.4989 8.73135C16.4862 8.71374 16.4695 8.69941 16.4501 8.68952C16.4307 8.67964 16.4093 8.67448 16.3876 8.67448C16.3658 8.67448 16.3444 8.67964 16.325 8.68952C16.3057 8.69941 16.2889 8.71374 16.2762 8.73135C16.2569 8.75747 16.2404 8.8551 16.2074 9.05447L16.0961 9.72685L16.0713 9.86435C15.9538 10.4825 15.6279 11.0416 15.148 11.4485C14.668 11.8554 14.0631 12.0854 13.4341 12.1001H13.1536C12.5245 12.0854 11.9196 11.8554 11.4396 11.4485C10.9597 11.0416 10.6338 10.4825 10.5163 9.86435L10.4916 9.72685L10.3802 9.0531C10.3472 8.85647 10.3307 8.75747 10.3114 8.73135C10.2987 8.71374 10.2819 8.69941 10.2626 8.68952C10.2432 8.67964 10.2218 8.67448 10.2001 8.67448C10.1783 8.67448 10.1569 8.67964 10.1375 8.68952C10.1182 8.69941 10.1014 8.71374 10.0887 8.73135C10.0694 8.75747 10.0529 8.8551 10.0199 9.05447C9.90306 9.76122 9.84394 10.1132 9.72156 10.4061C9.55411 10.809 9.29321 11.1662 8.9604 11.4484C8.62759 11.7305 8.23243 11.9294 7.80756 12.0286C7.49956 12.1001 7.13381 12.1001 6.39956 12.1001C5.83719 12.1001 5.55669 12.1001 5.35044 12.0327C5.08913 11.9482 4.85911 11.7874 4.69002 11.571C4.52092 11.3546 4.4205 11.0926 4.40169 10.8186C4.38794 10.6013 4.45394 10.336 4.58731 9.80247L6.24144 3.18322Z"
        stroke="#FFFCFC" />
</svg>
    