<svg width="387" height="264" viewBox="25 25 337 204" fill="none" xmlns="http://www.w3.org/2000/svg">
    <g filter="url(#filter0_d_1092_24978)">
        <path
            d="M342.783 26H44.2174C36.3653 26 30 32.2557 30 39.9726V216.027C30 223.744 36.3653 230 44.2174 230H342.783C350.635 230 357 223.744 357 216.027V39.9726C357 32.2557 350.635 26 342.783 26Z"
            fill="#FFD4DB" />
        <mask id="mask0_1092_24978" style="mask-type:alpha" maskUnits="userSpaceOnUse" x="30" y="26"
            width="327" height="204">
            <path
                d="M342.783 26H44.2174C36.3653 26 30 32.2557 30 39.9726V216.027C30 223.744 36.3653 230 44.2174 230H342.783C350.635 230 357 223.744 357 216.027V39.9726C357 32.2557 350.635 26 342.783 26Z"
                fill="#DAEBFF" />
        </mask>
        <g mask="url(#mask0_1092_24978)">
            <path
                d="M58 364C155.754 364 235 285.874 235 189.5C235 93.1263 155.754 15 58 15C-39.7544 15 -119 93.1263 -119 189.5C-119 285.874 -39.7544 364 58 364Z"
                fill="#4A1A1A" />
            <path
                d="M333.2 401.607C410.078 401.607 472.4 340.358 472.4 264.803C472.4 189.249 410.078 128 333.2 128C256.322 128 194 189.249 194 264.803C194 340.358 256.322 401.607 333.2 401.607Z"
                fill="#B22B19" />
            <path
                d="M348.878 153.749C401.599 153.749 444.337 111.746 444.337 59.9324C444.337 8.11916 401.599 -33.8838 348.878 -33.8838C296.157 -33.8838 253.418 8.11916 253.418 59.9324C253.418 111.746 296.157 153.749 348.878 153.749Z"
                fill="#E88872" />
            <path
                d="M292.816 195.552H289.624V194.328C289.624 194.2 289.576 194.088 289.48 193.992C289.4 193.896 289.296 193.848 289.168 193.848H287.848C287.72 193.848 287.608 193.896 287.512 193.992C287.432 194.088 287.392 194.2 287.392 194.328V197.088C287.392 197.216 287.432 197.328 287.512 197.424C287.608 197.52 287.72 197.568 287.848 197.568H290.008C291.992 197.6 292.984 198.656 292.984 200.736V204.072C292.984 206.184 291.992 207.24 290.008 207.24H287.176C285.192 207.24 284.2 206.184 284.2 204.072V202.464H287.392V204.192C287.392 204.32 287.432 204.432 287.512 204.528C287.608 204.624 287.72 204.672 287.848 204.672H289.336C289.464 204.672 289.568 204.624 289.648 204.528C289.744 204.432 289.792 204.32 289.792 204.192V201.144C289.792 201.016 289.744 200.904 289.648 200.808C289.568 200.712 289.464 200.664 289.336 200.664H287.176C285.192 200.664 284.2 199.608 284.2 197.496V194.4C284.2 192.288 285.192 191.232 287.176 191.232H289.84C291.824 191.232 292.816 192.288 292.816 194.4V195.552ZM294.304 194.328V191.472H302.704V194.328H300.184V207H296.824V194.328H294.304ZM310.407 191.232C312.391 191.232 313.383 192.288 313.383 194.4V207H310.023V201.792H307.599V207H304.239V194.4C304.239 192.288 305.231 191.232 307.215 191.232H310.407ZM307.599 199.2H310.023V193.992C310.023 193.864 309.975 193.752 309.879 193.656C309.799 193.56 309.695 193.512 309.567 193.512H308.055C307.927 193.512 307.815 193.56 307.719 193.656C307.639 193.752 307.599 193.864 307.599 193.992V199.2ZM319.248 200.904V207H315.888V191.472H322.896V194.376H319.248V198.096H322.656V200.904H319.248ZM328.224 200.904V207H324.864V191.472H331.872V194.376H328.224V198.096H331.632V200.904H328.224Z"
                fill="white" />
        </g>
    </g>
    <defs>
        <filter id="filter0_d_1092_24978" x="0" y="0" width="387" height="264"
            filterUnits="userSpaceOnUse" color-interpolation-filters="sRGB">
            <feFlood flood-opacity="0" result="BackgroundImageFix" />
            <feColorMatrix in="SourceAlpha" type="matrix"
                values="0 0 0 0 0 0 0 0 0 0 0 0 0 0 0 0 0 0 127 0" result="hardAlpha" />
            <feOffset dy="4" />
            <feGaussianBlur stdDeviation="15" />
            <feColorMatrix type="matrix"
                values="0 0 0 0 0.211765 0 0 0 0 0.160784 0 0 0 0 0.717647 0 0 0 0.07 0" />
            <feBlend mode="normal" in2="BackgroundImageFix" result="effect1_dropShadow_1092_24978" />
            <feBlend mode="normal" in="SourceGraphic" in2="effect1_dropShadow_1092_24978"
                result="shape" />
        </filter>
    </defs>
</svg>
    