<svg width="387" height="264" viewBox="25 25 337 204" fill="none" xmlns="http://www.w3.org/2000/svg">
    <g filter="url(#filter0_d_1075_25904)">
        <path
            d="M342.783 26H44.2174C36.3653 26 30 32.2557 30 39.9726V216.027C30 223.744 36.3653 230 44.2174 230H342.783C350.635 230 357 223.744 357 216.027V39.9726C357 32.2557 350.635 26 342.783 26Z"
            fill="#1573FF" />
        <mask id="mask0_1075_25904" style="mask-type:alpha" maskUnits="userSpaceOnUse" x="30" y="26"
            width="327" height="204">
            <path
                d="M342.783 26H44.2174C36.3653 26 30 32.2557 30 39.9726V216.027C30 223.744 36.3653 230 44.2174 230H342.783C350.635 230 357 223.744 357 216.027V39.9726C357 32.2557 350.635 26 342.783 26Z"
                fill="#DAEBFF" />
        </mask>
        <g mask="url(#mask0_1075_25904)">
            <path
                d="M278.816 190.552H275.624V189.328C275.624 189.2 275.576 189.088 275.48 188.992C275.4 188.896 275.296 188.848 275.168 188.848H273.848C273.72 188.848 273.608 188.896 273.512 188.992C273.432 189.088 273.392 189.2 273.392 189.328V192.088C273.392 192.216 273.432 192.328 273.512 192.424C273.608 192.52 273.72 192.568 273.848 192.568H276.008C277.992 192.6 278.984 193.656 278.984 195.736V199.072C278.984 201.184 277.992 202.24 276.008 202.24H273.176C271.192 202.24 270.2 201.184 270.2 199.072V197.464H273.392V199.192C273.392 199.32 273.432 199.432 273.512 199.528C273.608 199.624 273.72 199.672 273.848 199.672H275.336C275.464 199.672 275.568 199.624 275.648 199.528C275.744 199.432 275.792 199.32 275.792 199.192V196.144C275.792 196.016 275.744 195.904 275.648 195.808C275.568 195.712 275.464 195.664 275.336 195.664H273.176C271.192 195.664 270.2 194.608 270.2 192.496V189.4C270.2 187.288 271.192 186.232 273.176 186.232H275.84C277.824 186.232 278.816 187.288 278.816 189.4V190.552ZM280.304 189.328V186.472H288.704V189.328H286.184V202H282.824V189.328H280.304ZM295.783 186.472H299.143V199.072C299.143 201.184 298.151 202.24 296.167 202.24H293.191C291.207 202.24 290.215 201.184 290.215 199.072V186.472H293.575V199.36C293.575 199.488 293.615 199.6 293.695 199.696C293.791 199.792 293.903 199.84 294.031 199.84H295.327C295.455 199.84 295.559 199.792 295.639 199.696C295.735 199.6 295.783 199.488 295.783 199.36V186.472ZM307.61 186.472C309.594 186.472 310.586 187.528 310.586 189.64V198.832C310.586 200.944 309.594 202 307.61 202H301.442V186.472H307.61ZM307.226 199.216V189.232C307.226 189.104 307.178 188.992 307.082 188.896C307.002 188.8 306.898 188.752 306.77 188.752H304.802V199.696H306.77C306.898 199.696 307.002 199.648 307.082 199.552C307.178 199.456 307.226 199.344 307.226 199.216ZM316.451 199.216H320.171V202H313.091V186.472H320.171V189.208H316.451V192.856H319.931V195.496H316.451V199.216ZM331.018 202H327.658V189.112C327.658 188.984 327.61 188.872 327.514 188.776C327.434 188.68 327.33 188.632 327.202 188.632H325.906C325.778 188.632 325.666 188.68 325.57 188.776C325.49 188.872 325.45 188.984 325.45 189.112V202H322.09V189.4C322.09 187.288 323.082 186.232 325.066 186.232H328.042C330.026 186.232 331.018 187.288 331.018 189.4V202ZM332.382 189.328V186.472H340.782V189.328H338.262V202H334.902V189.328H332.382Z"
                fill="white" />
            <path
                d="M75.8991 348.172C173.489 348.172 252.601 270.422 252.601 174.513C252.601 78.6031 173.489 0.853027 75.8991 0.853027C-21.6906 0.853027 -100.803 78.6031 -100.803 174.513C-100.803 270.422 -21.6906 348.172 75.8991 348.172Z"
                fill="#1E1671" />
            <path
                d="M348.878 153.749C401.599 153.749 444.338 111.746 444.338 59.9324C444.338 8.11916 401.599 -33.8838 348.878 -33.8838C296.157 -33.8838 253.418 8.11916 253.418 59.9324C253.418 111.746 296.157 153.749 348.878 153.749Z"
                fill="#4EB4FF" />
        </g>
    </g>
    <defs>
        <filter id="filter0_d_1075_25904" x="0" y="0" width="387" height="264"
            filterUnits="userSpaceOnUse" color-interpolation-filters="sRGB">
            <feFlood flood-opacity="0" result="BackgroundImageFix" />
            <feColorMatrix in="SourceAlpha" type="matrix"
                values="0 0 0 0 0 0 0 0 0 0 0 0 0 0 0 0 0 0 127 0" result="hardAlpha" />
            <feOffset dy="4" />
            <feGaussianBlur stdDeviation="15" />
            <feColorMatrix type="matrix"
                values="0 0 0 0 0.211765 0 0 0 0 0.160784 0 0 0 0 0.717647 0 0 0 0.07 0" />
            <feBlend mode="normal" in2="BackgroundImageFix" result="effect1_dropShadow_1075_25904" />
            <feBlend mode="normal" in="SourceGraphic" in2="effect1_dropShadow_1075_25904"
                result="shape" />
        </filter>
    </defs>
</svg>
    